<svg width="102" height="57" viewBox="0 0 102 57" fill="none" xmlns="http://www.w3.org/2000/svg">
<path d="M45.0127 22.8025C46.4475 22.5493 48.3324 22.418 50.2923 22.418C53.612 22.418 55.7782 22.9619 57.4287 24.2185C59.2292 25.5595 60.3638 27.7257 60.3638 30.8109C60.3638 34.1306 59.1541 36.4187 57.5037 37.8348C55.675 39.3539 52.8711 40.076 49.4671 40.076C47.4321 40.076 45.9598 39.9541 45.0127 39.8134V22.8025ZM48.9232 36.9345C49.2608 37.0095 49.8234 37.0095 50.2923 37.0095C53.8745 37.0377 56.2096 35.0777 56.2096 30.9328C56.2096 27.2006 54.0996 25.4282 50.7049 25.4282C49.8515 25.4282 49.2608 25.5032 48.9325 25.5782V36.9345H48.9232Z" fill="#2D2774"/>
<path d="M63.0551 35.8747C64.0866 36.4186 65.7371 36.9531 67.4063 36.9531C69.2068 36.9531 70.154 36.2029 70.154 35.0495C70.154 33.9898 69.3287 33.3521 67.2469 32.63C64.368 31.5985 62.4549 30.0043 62.4549 27.4536C62.4549 24.4903 64.9588 22.249 69.0193 22.249C70.9979 22.249 72.4233 22.6335 73.4455 23.1211L72.5734 26.2626C71.9076 25.925 70.6416 25.4374 68.963 25.4374C67.2657 25.4374 66.4404 26.2345 66.4404 27.1066C66.4404 28.2132 67.3969 28.7102 69.657 29.5823C72.7234 30.717 74.1395 32.3112 74.1395 34.7869C74.1395 37.694 71.9263 40.1696 67.1625 40.1696C65.1745 40.1696 63.2239 39.6257 62.2393 39.0912L63.0551 35.8747Z" fill="#2D2774"/>
<path d="M80.8538 35.4433L79.6441 39.8977H75.5742L80.8819 22.5491H86.0115L91.413 39.8977H87.1931L85.8521 35.4433H80.8538ZM85.2519 32.5081L84.1735 28.8321C83.8922 27.8005 83.5827 26.4877 83.3201 25.4843H83.2451C83.02 26.5158 82.7293 27.8287 82.4761 28.8321L81.4259 32.5081H85.2519Z" fill="#2D2774"/>
<path d="M45.5189 50.1101L45.05 51.8356H43.4746L45.5283 45.1306H47.507L49.5982 51.8356H47.9665L47.4507 50.1101H45.5189ZM47.2163 48.9754L46.8037 47.55C46.6911 47.1562 46.5692 46.6498 46.4754 46.2559H46.4473C46.3629 46.6592 46.2504 47.1656 46.1472 47.55L45.7346 48.9754H47.2163Z" fill="#2D2774"/>
<path d="M50.4893 45.2244C50.9581 45.1494 51.6146 45.0837 52.543 45.0837C53.4807 45.0837 54.1559 45.2619 54.5967 45.6276C55.028 45.9559 55.3094 46.5091 55.3094 47.1656C55.3094 47.8314 55.0937 48.3847 54.6998 48.7598C54.184 49.238 53.4057 49.4725 52.5148 49.4725C52.3179 49.4725 52.1397 49.4631 51.9991 49.4256V51.8356H50.4893V45.2244ZM51.9991 48.2628C52.1303 48.2909 52.2898 48.3096 52.5054 48.3096C53.3119 48.3096 53.8089 47.897 53.8089 47.2218C53.8089 46.6029 53.3963 46.2372 52.6274 46.2372C52.3179 46.2372 52.1116 46.2559 51.9991 46.2935V48.2628Z" fill="#2D2774"/>
<path d="M56.2754 45.2244C56.7443 45.1494 57.4007 45.0837 58.3291 45.0837C59.2575 45.0837 59.9327 45.2619 60.3828 45.6276C60.8142 45.9559 61.0955 46.5091 61.0955 47.1656C61.0955 47.8314 60.8892 48.3847 60.4859 48.7598C59.9702 49.238 59.1918 49.4725 58.301 49.4725C58.104 49.4725 57.9258 49.4631 57.7852 49.4256V51.8356H56.2848V45.2244H56.2754ZM57.7758 48.2628C57.9071 48.2909 58.0665 48.3096 58.2822 48.3096C59.0887 48.3096 59.5857 47.897 59.5857 47.2218C59.5857 46.6029 59.1637 46.2372 58.4041 46.2372C58.0946 46.2372 57.8883 46.2559 57.7758 46.2935V48.2628Z" fill="#2D2774"/>
<path d="M62.0518 45.2243C62.5394 45.1399 63.2615 45.0742 64.0773 45.0742C65.0714 45.0742 65.7653 45.2243 66.2436 45.6087C66.6468 45.9276 66.8719 46.3965 66.8719 47.0154C66.8719 47.8594 66.2623 48.4502 65.6903 48.6565V48.6846C66.1592 48.8722 66.4217 49.3129 66.5905 49.9318C66.7968 50.7008 66.9938 51.5729 67.125 51.8355H65.5684C65.4746 51.6479 65.2964 51.0946 65.1089 50.2694C64.9213 49.4254 64.6306 49.2097 64.0023 49.2004H63.5616V51.8355H62.0518V45.2243ZM63.5522 48.1032H64.143C64.9026 48.1032 65.3433 47.7187 65.3433 47.1373C65.3433 46.5277 64.9307 46.2183 64.2274 46.2183C63.8616 46.2183 63.646 46.237 63.5428 46.2652V48.1032H63.5522Z" fill="#2D2774"/>
<path d="M70.7544 51.9386C68.7757 51.9386 67.6035 50.4382 67.6035 48.5252C67.6035 46.5183 68.8976 45.0085 70.8669 45.0085C72.9206 45.0085 74.0459 46.5559 74.0459 48.4032C74.0553 50.6257 72.7237 51.9386 70.7544 51.9386ZM70.8294 50.7383C71.8516 50.7383 72.4424 49.7724 72.4424 48.4595C72.4424 47.2592 71.8797 46.2183 70.8294 46.2183C69.7791 46.2183 69.1977 47.231 69.1977 48.4876C69.1883 49.7536 69.8073 50.7383 70.8294 50.7383Z" fill="#2D2774"/>
<path d="M76.4561 51.8355L74.3086 45.1211H75.9684L76.7843 47.9625C77.0187 48.769 77.225 49.5192 77.3845 50.3632H77.4126C77.5814 49.5567 77.7877 48.7596 78.0221 47.9906L78.8755 45.1211H80.4884L78.2284 51.8355H76.4561Z" fill="#2D2774"/>
<path d="M85.1959 48.9942H82.7296V50.5884H85.4866V51.8356H81.2104V45.1306H85.346V46.3685H82.7296V47.7657H85.1959V48.9942Z" fill="#2D2774"/>
<path d="M86.5181 45.2243C87.0713 45.1211 87.8028 45.0742 88.553 45.0742C89.8377 45.0742 90.6723 45.2805 91.31 45.7682C92.004 46.2839 92.4447 47.1279 92.4447 48.3095C92.4447 49.5942 91.9758 50.4757 91.3382 51.029C90.6348 51.6198 89.547 51.9011 88.2342 51.9011C87.4464 51.9011 86.8838 51.8449 86.5181 51.798V45.2243ZM88.0279 50.6914C88.1591 50.7195 88.3748 50.7195 88.553 50.7195C89.9409 50.7289 90.8411 49.9693 90.8411 48.3751C90.8411 46.931 90.0253 46.2464 88.7124 46.2464C88.3842 46.2464 88.1591 46.2746 88.0279 46.3027V50.6914Z" fill="#2D2774"/>
<path d="M9.08691 50.7102H36.1695V23.6277H9.08691V50.7102Z" fill="white"/>
<path d="M9.08691 50.7102H36.1695V23.6277H9.08691V50.7102Z" stroke="#2D2774" stroke-width="8.08432"/>
<mask id="mask0_466_426" style="mask-type:luminance" maskUnits="userSpaceOnUse" x="48" y="5" width="10" height="5">
<path d="M57.3532 9.02671C57.3532 9.02671 57.3439 9.02671 57.3439 9.01733L57.3532 9.02671ZM49.326 5.18188C48.9697 5.18188 48.5758 5.21002 48.1538 5.25691L53.1521 8.47343C53.846 8.38903 54.4556 8.37027 54.9807 8.39841C55.4965 8.42654 55.9279 8.50156 56.2748 8.59534C56.6218 8.67973 56.8844 8.78289 57.0625 8.86729C57.222 8.93293 57.3157 8.9892 57.3439 9.01733L52.2893 5.81018C52.2706 5.80081 52.1768 5.73516 51.9986 5.66014C51.8205 5.57574 51.5673 5.48197 51.2203 5.39757C50.8827 5.31317 50.4513 5.23815 49.9449 5.20064C49.7949 5.19126 49.6355 5.18188 49.4667 5.18188H49.326Z" fill="white"/>
</mask>
<g mask="url(#mask0_466_426)">
<path d="M53.1428 8.48279L48.1445 5.26627C48.182 5.25689 48.2196 5.25689 48.2664 5.25689C48.3039 5.25689 48.3415 5.24751 48.379 5.24751C48.4165 5.24751 48.454 5.23814 48.4915 5.23814C48.529 5.23814 48.5665 5.22876 48.604 5.22876L53.6117 8.44528C53.5742 8.44528 53.5367 8.45466 53.4992 8.45466C53.4616 8.45466 53.4241 8.46404 53.3866 8.46404C53.3491 8.46404 53.3116 8.47341 53.2647 8.47341C53.2272 8.47341 53.1897 8.47341 53.1428 8.48279Z" fill="#DF1B22"/>
</g>
<mask id="mask1_466_426" style="mask-type:luminance" maskUnits="userSpaceOnUse" x="48" y="5" width="10" height="5">
<path d="M57.3532 9.02671C57.3532 9.02671 57.3439 9.02671 57.3439 9.01733L57.3532 9.02671ZM49.326 5.18188C48.9697 5.18188 48.5758 5.21002 48.1538 5.25691L53.1521 8.47343C53.846 8.38903 54.4556 8.37027 54.9807 8.39841C55.4965 8.42654 55.9279 8.50156 56.2748 8.59534C56.6218 8.67973 56.8844 8.78289 57.0625 8.86729C57.222 8.93293 57.3157 8.9892 57.3439 9.01733L52.2893 5.81018C52.2706 5.80081 52.1768 5.73516 51.9986 5.66014C51.8205 5.57574 51.5673 5.48197 51.2203 5.39757C50.8827 5.31317 50.4513 5.23815 49.9449 5.20064C49.7949 5.19126 49.6355 5.18188 49.4667 5.18188H49.326Z" fill="white"/>
</mask>
<g mask="url(#mask1_466_426)">
<path d="M53.6214 8.4264L48.6138 5.20987C48.7638 5.2005 48.9045 5.19112 49.0451 5.18174C49.1858 5.17236 49.3171 5.17236 49.4484 5.17236C49.5797 5.17236 49.7016 5.17236 49.8235 5.18174C49.9454 5.19112 50.0579 5.19112 50.1705 5.20987L55.2062 8.41702C55.0937 8.40764 54.9718 8.39826 54.8499 8.39826C54.728 8.38889 54.5967 8.38889 54.4654 8.38889C54.3341 8.38889 54.1935 8.38889 54.0528 8.39826C53.9121 8.40764 53.7715 8.41702 53.6214 8.4264Z" fill="#E31B22"/>
</g>
<mask id="mask2_466_426" style="mask-type:luminance" maskUnits="userSpaceOnUse" x="48" y="5" width="10" height="5">
<path d="M57.3532 9.02671C57.3532 9.02671 57.3439 9.02671 57.3439 9.01733L57.3532 9.02671ZM49.326 5.18188C48.9697 5.18188 48.5758 5.21002 48.1538 5.25691L53.1521 8.47343C53.846 8.38903 54.4556 8.37027 54.9807 8.39841C55.4965 8.42654 55.9279 8.50156 56.2748 8.59534C56.6218 8.67973 56.8844 8.78289 57.0625 8.86729C57.222 8.93293 57.3157 8.9892 57.3439 9.01733L52.2893 5.81018C52.2706 5.80081 52.1768 5.73516 51.9986 5.66014C51.8205 5.57574 51.5673 5.48197 51.2203 5.39757C50.8827 5.31317 50.4513 5.23815 49.9449 5.20064C49.7949 5.19126 49.6355 5.18188 49.4667 5.18188H49.326Z" fill="white"/>
</mask>
<g mask="url(#mask2_466_426)">
<path d="M55.2062 8.42638L50.1704 5.21924C50.3955 5.23799 50.6112 5.26613 50.7987 5.30364C50.9863 5.34115 51.1644 5.37866 51.3145 5.41617C51.4645 5.45368 51.6052 5.50057 51.7177 5.54745C51.8302 5.58497 51.9334 5.63185 52.0084 5.66936L57.0723 8.87651C56.9879 8.839 56.8942 8.80149 56.7723 8.7546C56.6503 8.70771 56.5191 8.6702 56.3596 8.62331C56.2002 8.57643 56.0314 8.53891 55.8345 8.5014C55.6469 8.47327 55.4406 8.44514 55.2062 8.42638Z" fill="#E71C23"/>
</g>
<mask id="mask3_466_426" style="mask-type:luminance" maskUnits="userSpaceOnUse" x="48" y="5" width="10" height="5">
<path d="M57.3532 9.02671C57.3532 9.02671 57.3439 9.02671 57.3439 9.01733L57.3532 9.02671ZM49.326 5.18188C48.9697 5.18188 48.5758 5.21002 48.1538 5.25691L53.1521 8.47343C53.846 8.38903 54.4556 8.37027 54.9807 8.39841C55.4965 8.42654 55.9279 8.50156 56.2748 8.59534C56.6218 8.67973 56.8844 8.78289 57.0625 8.86729C57.222 8.93293 57.3157 8.9892 57.3439 9.01733L52.2893 5.81018C52.2706 5.80081 52.1768 5.73516 51.9986 5.66014C51.8205 5.57574 51.5673 5.48197 51.2203 5.39757C50.8827 5.31317 50.4513 5.23815 49.9449 5.20064C49.7949 5.19126 49.6355 5.18188 49.4667 5.18188H49.326Z" fill="white"/>
</mask>
<g mask="url(#mask3_466_426)">
<path d="M57.0815 8.8861L52.0176 5.67896C52.0551 5.69771 52.0926 5.71647 52.1207 5.72584C52.1489 5.7446 52.177 5.75398 52.1958 5.76335C52.2145 5.77273 52.2333 5.78211 52.252 5.79149C52.2614 5.80086 52.2708 5.80086 52.2802 5.81024L57.3441 9.01739C57.3441 9.01739 57.3347 9.00801 57.3159 8.99863C57.3066 8.98925 57.2878 8.97988 57.2597 8.9705C57.2409 8.96112 57.2128 8.94237 57.1753 8.92361C57.1659 8.92361 57.1284 8.90486 57.0815 8.8861Z" fill="#E31B22"/>
</g>
<mask id="mask4_466_426" style="mask-type:luminance" maskUnits="userSpaceOnUse" x="17" y="5" width="37" height="36">
<path d="M43.2778 6.8417C41.3366 7.81697 39.0954 9.31739 36.5634 11.5774C34.0221 13.8468 31.19 16.8945 28.0767 20.9363C24.9539 25.0061 21.5498 30.07 17.8926 36.3812L22.2344 40.4417C25.9761 33.9711 29.4552 28.7759 32.6529 24.6029C35.8413 20.4486 38.739 17.3259 41.3272 14.9908C43.9155 12.6652 46.2036 11.1273 48.1729 10.1239C50.1422 9.12046 51.802 8.66095 53.143 8.49216L48.1448 5.27563C46.8319 5.42568 45.2002 5.8758 43.2778 6.8417Z" fill="white"/>
</mask>
<g mask="url(#mask4_466_426)">
<path d="M22.2343 40.4324L17.9019 36.3718C17.9769 36.2499 18.0425 36.128 18.1175 36.0061C18.1926 35.8842 18.2582 35.7623 18.3332 35.6404C18.4082 35.5185 18.4739 35.3966 18.5489 35.2747C18.6146 35.1528 18.6896 35.0308 18.7646 34.9089L23.1252 38.9319C23.0502 39.0538 22.9845 39.1758 22.9095 39.307C22.8345 39.4289 22.7688 39.5509 22.6938 39.6821C22.6188 39.8041 22.5438 39.9353 22.4781 40.0572C22.3844 40.1792 22.3093 40.3104 22.2343 40.4324Z" fill="#9A090D"/>
</g>
<mask id="mask5_466_426" style="mask-type:luminance" maskUnits="userSpaceOnUse" x="17" y="5" width="37" height="36">
<path d="M43.2778 6.8417C41.3366 7.81697 39.0954 9.31739 36.5634 11.5774C34.0221 13.8468 31.19 16.8945 28.0767 20.9363C24.9539 25.0061 21.5498 30.07 17.8926 36.3812L22.2344 40.4417C25.9761 33.9711 29.4552 28.7759 32.6529 24.6029C35.8413 20.4486 38.739 17.3259 41.3272 14.9908C43.9155 12.6652 46.2036 11.1273 48.1729 10.1239C50.1422 9.12046 51.802 8.66095 53.143 8.49216L48.1448 5.27563C46.8319 5.42568 45.2002 5.8758 43.2778 6.8417Z" fill="white"/>
</mask>
<g mask="url(#mask5_466_426)">
<path d="M23.1067 38.9413L18.7461 34.9183C19.0743 34.3556 19.4119 33.8024 19.7401 33.2585C20.0683 32.7146 20.3966 32.1894 20.7154 31.6643C21.0342 31.1391 21.3624 30.6327 21.6813 30.1263C22.0001 29.6293 22.319 29.1323 22.6284 28.6541L27.0828 32.5083C26.764 33.0053 26.4357 33.5117 26.1075 34.018C25.7793 34.5338 25.4511 35.059 25.1229 35.5935C24.7947 36.128 24.4571 36.6719 24.1195 37.2252C23.7913 37.7972 23.4537 38.3599 23.1067 38.9413Z" fill="#9E0B0F"/>
</g>
<mask id="mask6_466_426" style="mask-type:luminance" maskUnits="userSpaceOnUse" x="17" y="5" width="37" height="36">
<path d="M43.2778 6.8417C41.3366 7.81697 39.0954 9.31739 36.5634 11.5774C34.0221 13.8468 31.19 16.8945 28.0767 20.9363C24.9539 25.0061 21.5498 30.07 17.8926 36.3812L22.2344 40.4417C25.9761 33.9711 29.4552 28.7759 32.6529 24.6029C35.8413 20.4486 38.739 17.3259 41.3272 14.9908C43.9155 12.6652 46.2036 11.1273 48.1729 10.1239C50.1422 9.12046 51.802 8.66095 53.143 8.49216L48.1448 5.27563C46.8319 5.42568 45.2002 5.8758 43.2778 6.8417Z" fill="white"/>
</mask>
<g mask="url(#mask6_466_426)">
<path d="M27.0828 32.5175L22.6284 28.6539C22.891 28.2507 23.1629 27.8474 23.4255 27.4536C23.6881 27.0597 23.9507 26.6752 24.2132 26.2908C24.4758 25.9063 24.729 25.5312 24.9916 25.1654C25.2448 24.7997 25.498 24.434 25.7605 24.0776L30.2806 27.8193C30.018 28.185 29.7648 28.5508 29.5022 28.9352C29.2396 29.3103 28.9771 29.6948 28.7145 30.0887C28.4519 30.4825 28.18 30.8764 27.908 31.2796C27.6267 31.6829 27.3547 32.0955 27.0828 32.5175Z" fill="#A10C11"/>
</g>
<mask id="mask7_466_426" style="mask-type:luminance" maskUnits="userSpaceOnUse" x="17" y="5" width="37" height="36">
<path d="M43.2778 6.8417C41.3366 7.81697 39.0954 9.31739 36.5634 11.5774C34.0221 13.8468 31.19 16.8945 28.0767 20.9363C24.9539 25.0061 21.5498 30.07 17.8926 36.3812L22.2344 40.4417C25.9761 33.9711 29.4552 28.7759 32.6529 24.6029C35.8413 20.4486 38.739 17.3259 41.3272 14.9908C43.9155 12.6652 46.2036 11.1273 48.1729 10.1239C50.1422 9.12046 51.802 8.66095 53.143 8.49216L48.1448 5.27563C46.8319 5.42568 45.2002 5.8758 43.2778 6.8417Z" fill="white"/>
</mask>
<g mask="url(#mask7_466_426)">
<path d="M30.271 27.8286L25.751 24.087C25.976 23.7775 26.1917 23.468 26.4168 23.168C26.6418 22.8679 26.8575 22.5678 27.0732 22.2771C27.2889 21.9864 27.5046 21.6957 27.7203 21.4143C27.936 21.133 28.1423 20.8517 28.358 20.5891L32.9436 24.237C32.7279 24.5183 32.5122 24.7997 32.2872 25.0904C32.0715 25.3811 31.8464 25.6718 31.6307 25.9719C31.4057 26.2719 31.19 26.572 30.9649 26.8815C30.7211 27.191 30.4961 27.5098 30.271 27.8286Z" fill="#A50E12"/>
</g>
<mask id="mask8_466_426" style="mask-type:luminance" maskUnits="userSpaceOnUse" x="17" y="5" width="37" height="36">
<path d="M43.2778 6.8417C41.3366 7.81697 39.0954 9.31739 36.5634 11.5774C34.0221 13.8468 31.19 16.8945 28.0767 20.9363C24.9539 25.0061 21.5498 30.07 17.8926 36.3812L22.2344 40.4417C25.9761 33.9711 29.4552 28.7759 32.6529 24.6029C35.8413 20.4486 38.739 17.3259 41.3272 14.9908C43.9155 12.6652 46.2036 11.1273 48.1729 10.1239C50.1422 9.12046 51.802 8.66095 53.143 8.49216L48.1448 5.27563C46.8319 5.42568 45.2002 5.8758 43.2778 6.8417Z" fill="white"/>
</mask>
<g mask="url(#mask8_466_426)">
<path d="M32.925 24.2371L28.3394 20.5892C28.5269 20.3454 28.7145 20.1109 28.902 19.8671C29.0896 19.6327 29.2771 19.3982 29.4553 19.1732C29.6428 18.9481 29.821 18.723 30.0086 18.498C30.1867 18.2729 30.3743 18.0572 30.5525 17.8416L35.185 21.4238C34.9975 21.6395 34.8193 21.8645 34.6317 22.099C34.4442 22.3241 34.2566 22.5585 34.0691 22.7929C33.8815 23.0274 33.694 23.2618 33.497 23.5056C33.3189 23.7495 33.1219 23.9933 32.925 24.2371Z" fill="#A90F14"/>
</g>
<mask id="mask9_466_426" style="mask-type:luminance" maskUnits="userSpaceOnUse" x="17" y="5" width="37" height="36">
<path d="M43.2778 6.8417C41.3366 7.81697 39.0954 9.31739 36.5634 11.5774C34.0221 13.8468 31.19 16.8945 28.0767 20.9363C24.9539 25.0061 21.5498 30.07 17.8926 36.3812L22.2344 40.4417C25.9761 33.9711 29.4552 28.7759 32.6529 24.6029C35.8413 20.4486 38.739 17.3259 41.3272 14.9908C43.9155 12.6652 46.2036 11.1273 48.1729 10.1239C50.1422 9.12046 51.802 8.66095 53.143 8.49216L48.1448 5.27563C46.8319 5.42568 45.2002 5.8758 43.2778 6.8417Z" fill="white"/>
</mask>
<g mask="url(#mask9_466_426)">
<path d="M35.1941 21.4238L30.5615 17.8415C30.7303 17.6446 30.8897 17.4477 31.0585 17.2601C31.218 17.0726 31.3868 16.885 31.5462 16.6975C31.7056 16.5099 31.8744 16.3317 32.0338 16.1536C32.1932 15.9754 32.3526 15.7972 32.5121 15.6284L37.1915 19.145C37.0321 19.3232 36.8633 19.5014 36.7039 19.6889C36.5444 19.8765 36.3756 20.064 36.2068 20.2516C36.0381 20.4391 35.8786 20.6361 35.7098 20.833C35.5317 21.0205 35.3629 21.2175 35.1941 21.4238Z" fill="#AD1015"/>
</g>
<mask id="mask10_466_426" style="mask-type:luminance" maskUnits="userSpaceOnUse" x="17" y="5" width="37" height="36">
<path d="M43.2778 6.8417C41.3366 7.81697 39.0954 9.31739 36.5634 11.5774C34.0221 13.8468 31.19 16.8945 28.0767 20.9363C24.9539 25.0061 21.5498 30.07 17.8926 36.3812L22.2344 40.4417C25.9761 33.9711 29.4552 28.7759 32.6529 24.6029C35.8413 20.4486 38.739 17.3259 41.3272 14.9908C43.9155 12.6652 46.2036 11.1273 48.1729 10.1239C50.1422 9.12046 51.802 8.66095 53.143 8.49216L48.1448 5.27563C46.8319 5.42568 45.2002 5.8758 43.2778 6.8417Z" fill="white"/>
</mask>
<g mask="url(#mask10_466_426)">
<path d="M37.1824 19.1452L32.5029 15.6286C32.653 15.4692 32.7936 15.3097 32.9437 15.1503C33.0937 14.9909 33.2344 14.8409 33.375 14.6908C33.5157 14.5408 33.6658 14.3907 33.8064 14.2407C33.9471 14.0907 34.0877 13.95 34.2284 13.8093L38.9454 17.279C38.8047 17.4291 38.6546 17.5791 38.514 17.7292C38.3733 17.8792 38.2233 18.0293 38.0732 18.1887C37.9232 18.3481 37.7825 18.5075 37.6325 18.6669C37.4824 18.817 37.3324 18.9764 37.1824 19.1452Z" fill="#B11116"/>
</g>
<mask id="mask11_466_426" style="mask-type:luminance" maskUnits="userSpaceOnUse" x="17" y="5" width="37" height="36">
<path d="M43.2778 6.8417C41.3366 7.81697 39.0954 9.31739 36.5634 11.5774C34.0221 13.8468 31.19 16.8945 28.0767 20.9363C24.9539 25.0061 21.5498 30.07 17.8926 36.3812L22.2344 40.4417C25.9761 33.9711 29.4552 28.7759 32.6529 24.6029C35.8413 20.4486 38.739 17.3259 41.3272 14.9908C43.9155 12.6652 46.2036 11.1273 48.1729 10.1239C50.1422 9.12046 51.802 8.66095 53.143 8.49216L48.1448 5.27563C46.8319 5.42568 45.2002 5.8758 43.2778 6.8417Z" fill="white"/>
</mask>
<g mask="url(#mask11_466_426)">
<path d="M38.9547 17.2695L34.2378 13.7998C34.3691 13.6685 34.5004 13.5278 34.6317 13.3966C34.7629 13.2653 34.8942 13.134 35.0255 13.0121C35.1568 12.8902 35.2881 12.7589 35.41 12.637C35.5413 12.5151 35.6632 12.3931 35.7945 12.2712L40.5395 15.7034C40.4083 15.8254 40.277 15.9473 40.1457 16.0786C40.0144 16.2005 39.8831 16.3317 39.7518 16.463C39.6205 16.5943 39.4893 16.7256 39.3486 16.8569C39.2267 16.9882 39.086 17.1288 38.9547 17.2695Z" fill="#B51218"/>
</g>
<mask id="mask12_466_426" style="mask-type:luminance" maskUnits="userSpaceOnUse" x="17" y="5" width="37" height="36">
<path d="M43.2778 6.8417C41.3366 7.81697 39.0954 9.31739 36.5634 11.5774C34.0221 13.8468 31.19 16.8945 28.0767 20.9363C24.9539 25.0061 21.5498 30.07 17.8926 36.3812L22.2344 40.4417C25.9761 33.9711 29.4552 28.7759 32.6529 24.6029C35.8413 20.4486 38.739 17.3259 41.3272 14.9908C43.9155 12.6652 46.2036 11.1273 48.1729 10.1239C50.1422 9.12046 51.802 8.66095 53.143 8.49216L48.1448 5.27563C46.8319 5.42568 45.2002 5.8758 43.2778 6.8417Z" fill="white"/>
</mask>
<g mask="url(#mask12_466_426)">
<path d="M40.5488 15.7036L35.8037 12.2714C35.9256 12.1589 36.0475 12.0463 36.1694 11.9338C36.2913 11.8213 36.4133 11.7181 36.5258 11.6056C36.6477 11.5024 36.7602 11.3899 36.8821 11.2868C36.9947 11.1836 37.1166 11.0804 37.2291 10.9773L42.0117 14.372C41.8898 14.4751 41.7773 14.5783 41.6553 14.6815C41.5334 14.7846 41.4115 14.8971 41.2896 15.0097C41.1677 15.1222 41.0458 15.2347 40.9239 15.3473C40.802 15.4692 40.6707 15.5911 40.5488 15.7036Z" fill="#B91319"/>
</g>
<mask id="mask13_466_426" style="mask-type:luminance" maskUnits="userSpaceOnUse" x="17" y="5" width="37" height="36">
<path d="M43.2778 6.8417C41.3366 7.81697 39.0954 9.31739 36.5634 11.5774C34.0221 13.8468 31.19 16.8945 28.0767 20.9363C24.9539 25.0061 21.5498 30.07 17.8926 36.3812L22.2344 40.4417C25.9761 33.9711 29.4552 28.7759 32.6529 24.6029C35.8413 20.4486 38.739 17.3259 41.3272 14.9908C43.9155 12.6652 46.2036 11.1273 48.1729 10.1239C50.1422 9.12046 51.802 8.66095 53.143 8.49216L48.1448 5.27563C46.8319 5.42568 45.2002 5.8758 43.2778 6.8417Z" fill="white"/>
</mask>
<g mask="url(#mask13_466_426)">
<path d="M42.0116 14.3907L37.229 10.996C37.3415 10.9022 37.4541 10.8085 37.5666 10.7147C37.6791 10.6209 37.7917 10.5271 37.9042 10.4334C38.0167 10.3396 38.1199 10.2552 38.2324 10.1708C38.3449 10.0864 38.4481 9.9926 38.5606 9.9082L43.3713 13.2748C43.2588 13.3592 43.1463 13.4529 43.0431 13.5373C42.9306 13.6311 42.8181 13.7155 42.7055 13.8093C42.593 13.9031 42.4805 13.9968 42.3679 14.0906C42.246 14.1844 42.1241 14.2875 42.0116 14.3907Z" fill="#BC141A"/>
</g>
<mask id="mask14_466_426" style="mask-type:luminance" maskUnits="userSpaceOnUse" x="17" y="5" width="37" height="36">
<path d="M43.2778 6.8417C41.3366 7.81697 39.0954 9.31739 36.5634 11.5774C34.0221 13.8468 31.19 16.8945 28.0767 20.9363C24.9539 25.0061 21.5498 30.07 17.8926 36.3812L22.2344 40.4417C25.9761 33.9711 29.4552 28.7759 32.6529 24.6029C35.8413 20.4486 38.739 17.3259 41.3272 14.9908C43.9155 12.6652 46.2036 11.1273 48.1729 10.1239C50.1422 9.12046 51.802 8.66095 53.143 8.49216L48.1448 5.27563C46.8319 5.42568 45.2002 5.8758 43.2778 6.8417Z" fill="white"/>
</mask>
<g mask="url(#mask14_466_426)">
<path d="M43.362 13.2653L38.5513 9.89874C38.6544 9.81434 38.7576 9.72995 38.8701 9.65492C38.9733 9.57053 39.0764 9.4955 39.1796 9.42048C39.2827 9.34546 39.3859 9.27044 39.489 9.19542C39.5922 9.1204 39.6953 9.04538 39.7891 8.97974L44.6186 12.3182C44.5154 12.3932 44.4123 12.4682 44.3091 12.5432C44.206 12.6183 44.1028 12.7026 43.9997 12.7777C43.8965 12.8527 43.7934 12.9371 43.6808 13.0215C43.5777 13.0965 43.4745 13.1809 43.362 13.2653Z" fill="#C0151B"/>
</g>
<mask id="mask15_466_426" style="mask-type:luminance" maskUnits="userSpaceOnUse" x="17" y="5" width="37" height="36">
<path d="M43.2778 6.8417C41.3366 7.81697 39.0954 9.31739 36.5634 11.5774C34.0221 13.8468 31.19 16.8945 28.0767 20.9363C24.9539 25.0061 21.5498 30.07 17.8926 36.3812L22.2344 40.4417C25.9761 33.9711 29.4552 28.7759 32.6529 24.6029C35.8413 20.4486 38.739 17.3259 41.3272 14.9908C43.9155 12.6652 46.2036 11.1273 48.1729 10.1239C50.1422 9.12046 51.802 8.66095 53.143 8.49216L48.1448 5.27563C46.8319 5.42568 45.2002 5.8758 43.2778 6.8417Z" fill="white"/>
</mask>
<g mask="url(#mask15_466_426)">
<path d="M44.6283 12.3089L39.7988 8.97044C39.902 8.89542 39.9958 8.82977 40.0989 8.76413C40.1927 8.69849 40.2958 8.62347 40.3896 8.55782C40.4834 8.49218 40.5865 8.42654 40.6803 8.36089C40.7741 8.29525 40.8679 8.23898 40.971 8.17334L45.8286 11.4836C45.7349 11.5493 45.6317 11.6149 45.5379 11.6806C45.4442 11.7462 45.341 11.8119 45.2378 11.8775C45.1347 11.9431 45.0409 12.0182 44.9378 12.0838C44.8346 12.1588 44.7315 12.2338 44.6283 12.3089Z" fill="#C4161C"/>
</g>
<mask id="mask16_466_426" style="mask-type:luminance" maskUnits="userSpaceOnUse" x="17" y="5" width="37" height="36">
<path d="M43.2778 6.8417C41.3366 7.81697 39.0954 9.31739 36.5634 11.5774C34.0221 13.8468 31.19 16.8945 28.0767 20.9363C24.9539 25.0061 21.5498 30.07 17.8926 36.3812L22.2344 40.4417C25.9761 33.9711 29.4552 28.7759 32.6529 24.6029C35.8413 20.4486 38.739 17.3259 41.3272 14.9908C43.9155 12.6652 46.2036 11.1273 48.1729 10.1239C50.1422 9.12046 51.802 8.66095 53.143 8.49216L48.1448 5.27563C46.8319 5.42568 45.2002 5.8758 43.2778 6.8417Z" fill="white"/>
</mask>
<g mask="url(#mask16_466_426)">
<path d="M45.819 11.4836L40.9614 8.17334C41.0552 8.11707 41.149 8.05143 41.2428 7.99516C41.3365 7.9389 41.4303 7.88263 41.5241 7.81699C41.6179 7.76072 41.7116 7.70445 41.8054 7.64819C41.8992 7.59192 41.9836 7.54504 42.0774 7.48877L46.9537 10.7803C46.8599 10.8366 46.7662 10.8928 46.6724 10.9491C46.5786 11.0054 46.4848 11.0616 46.3911 11.1179C46.2973 11.1742 46.2035 11.2398 46.1004 11.2961C46.016 11.3617 45.9128 11.4274 45.819 11.4836Z" fill="#C8161D"/>
</g>
<mask id="mask17_466_426" style="mask-type:luminance" maskUnits="userSpaceOnUse" x="17" y="5" width="37" height="36">
<path d="M43.2778 6.8417C41.3366 7.81697 39.0954 9.31739 36.5634 11.5774C34.0221 13.8468 31.19 16.8945 28.0767 20.9363C24.9539 25.0061 21.5498 30.07 17.8926 36.3812L22.2344 40.4417C25.9761 33.9711 29.4552 28.7759 32.6529 24.6029C35.8413 20.4486 38.739 17.3259 41.3272 14.9908C43.9155 12.6652 46.2036 11.1273 48.1729 10.1239C50.1422 9.12046 51.802 8.66095 53.143 8.49216L48.1448 5.27563C46.8319 5.42568 45.2002 5.8758 43.2778 6.8417Z" fill="white"/>
</mask>
<g mask="url(#mask17_466_426)">
<path d="M46.954 10.7803L42.0776 7.48874C42.1714 7.43247 42.2652 7.38559 42.3496 7.32932C42.4434 7.28243 42.5278 7.22617 42.6215 7.17928C42.7059 7.13239 42.7997 7.0855 42.8841 7.03861C42.9685 6.99173 43.0623 6.94484 43.1467 6.89795L48.0512 10.1707C47.9668 10.2176 47.873 10.2645 47.7792 10.3114C47.6855 10.3583 47.6011 10.4052 47.5073 10.4614C47.4135 10.5083 47.3197 10.5646 47.2353 10.6115C47.1415 10.6771 47.0478 10.724 46.954 10.7803Z" fill="#CC171E"/>
</g>
<mask id="mask18_466_426" style="mask-type:luminance" maskUnits="userSpaceOnUse" x="17" y="5" width="37" height="36">
<path d="M43.2778 6.8417C41.3366 7.81697 39.0954 9.31739 36.5634 11.5774C34.0221 13.8468 31.19 16.8945 28.0767 20.9363C24.9539 25.0061 21.5498 30.07 17.8926 36.3812L22.2344 40.4417C25.9761 33.9711 29.4552 28.7759 32.6529 24.6029C35.8413 20.4486 38.739 17.3259 41.3272 14.9908C43.9155 12.6652 46.2036 11.1273 48.1729 10.1239C50.1422 9.12046 51.802 8.66095 53.143 8.49216L48.1448 5.27563C46.8319 5.42568 45.2002 5.8758 43.2778 6.8417Z" fill="white"/>
</mask>
<g mask="url(#mask18_466_426)">
<path d="M48.0603 10.1802L43.1558 6.90741C43.2495 6.86053 43.3339 6.81364 43.4277 6.77613C43.5121 6.72924 43.6059 6.69173 43.6903 6.64484C43.7747 6.60733 43.8685 6.56044 43.9529 6.52293C44.0373 6.48542 44.1217 6.44791 44.2061 6.4104L49.1293 9.66443C49.0449 9.70194 48.9511 9.73945 48.8667 9.78634C48.7823 9.82385 48.6886 9.87074 48.6042 9.90825C48.5104 9.95514 48.426 9.99265 48.3322 10.0395C48.2384 10.0864 48.1447 10.1333 48.0603 10.1802Z" fill="#D0181F"/>
</g>
<mask id="mask19_466_426" style="mask-type:luminance" maskUnits="userSpaceOnUse" x="17" y="5" width="37" height="36">
<path d="M43.2778 6.8417C41.3366 7.81697 39.0954 9.31739 36.5634 11.5774C34.0221 13.8468 31.19 16.8945 28.0767 20.9363C24.9539 25.0061 21.5498 30.07 17.8926 36.3812L22.2344 40.4417C25.9761 33.9711 29.4552 28.7759 32.6529 24.6029C35.8413 20.4486 38.739 17.3259 41.3272 14.9908C43.9155 12.6652 46.2036 11.1273 48.1729 10.1239C50.1422 9.12046 51.802 8.66095 53.143 8.49216L48.1448 5.27563C46.8319 5.42568 45.2002 5.8758 43.2778 6.8417Z" fill="white"/>
</mask>
<g mask="url(#mask19_466_426)">
<path d="M49.1293 9.66421L44.2061 6.41017C44.2998 6.37266 44.3842 6.33515 44.478 6.29764C44.5624 6.26013 44.6562 6.22262 44.7406 6.19449C44.825 6.15698 44.9094 6.12885 45.0032 6.09133C45.0876 6.0632 45.172 6.02569 45.2563 5.99756L50.1984 9.24221C50.114 9.27035 50.0296 9.30786 49.9358 9.33599C49.8514 9.3735 49.7576 9.40163 49.6732 9.43914C49.5888 9.47665 49.495 9.51416 49.4013 9.55168C49.3169 9.57981 49.2231 9.61732 49.1293 9.66421Z" fill="#D31820"/>
</g>
<mask id="mask20_466_426" style="mask-type:luminance" maskUnits="userSpaceOnUse" x="17" y="5" width="37" height="36">
<path d="M43.2778 6.8417C41.3366 7.81697 39.0954 9.31739 36.5634 11.5774C34.0221 13.8468 31.19 16.8945 28.0767 20.9363C24.9539 25.0061 21.5498 30.07 17.8926 36.3812L22.2344 40.4417C25.9761 33.9711 29.4552 28.7759 32.6529 24.6029C35.8413 20.4486 38.739 17.3259 41.3272 14.9908C43.9155 12.6652 46.2036 11.1273 48.1729 10.1239C50.1422 9.12046 51.802 8.66095 53.143 8.49216L48.1448 5.27563C46.8319 5.42568 45.2002 5.8758 43.2778 6.8417Z" fill="white"/>
</mask>
<g mask="url(#mask20_466_426)">
<path d="M50.1983 9.23288L45.2563 5.98823C45.3501 5.95072 45.4345 5.92259 45.5283 5.89445C45.6221 5.86632 45.7065 5.83819 45.7909 5.81005C45.8753 5.78192 45.969 5.75379 46.0534 5.72566C46.1378 5.69752 46.2222 5.67877 46.3066 5.65063L51.2674 8.88591C51.183 8.91405 51.0986 8.9328 51.0048 8.96093C50.9204 8.98907 50.8267 9.0172 50.7423 9.04533C50.6579 9.07346 50.5641 9.1016 50.4703 9.13911C50.3765 9.15786 50.2921 9.19537 50.1983 9.23288Z" fill="#D71920"/>
</g>
<mask id="mask21_466_426" style="mask-type:luminance" maskUnits="userSpaceOnUse" x="17" y="5" width="37" height="36">
<path d="M43.2778 6.8417C41.3366 7.81697 39.0954 9.31739 36.5634 11.5774C34.0221 13.8468 31.19 16.8945 28.0767 20.9363C24.9539 25.0061 21.5498 30.07 17.8926 36.3812L22.2344 40.4417C25.9761 33.9711 29.4552 28.7759 32.6529 24.6029C35.8413 20.4486 38.739 17.3259 41.3272 14.9908C43.9155 12.6652 46.2036 11.1273 48.1729 10.1239C50.1422 9.12046 51.802 8.66095 53.143 8.49216L48.1448 5.27563C46.8319 5.42568 45.2002 5.8758 43.2778 6.8417Z" fill="white"/>
</mask>
<g mask="url(#mask21_466_426)">
<path d="M51.2674 8.87666L46.3066 5.64138C46.4004 5.61325 46.4942 5.58511 46.588 5.56636C46.6817 5.53823 46.7755 5.51947 46.8599 5.50071C46.9537 5.48196 47.0381 5.4632 47.1319 5.44445C47.2163 5.42569 47.31 5.40694 47.3944 5.38818L52.374 8.61408C52.2896 8.63284 52.1958 8.65159 52.102 8.67035C52.0082 8.6891 51.9238 8.70786 51.8301 8.73599C51.7363 8.75475 51.6425 8.78288 51.5487 8.81101C51.4643 8.82039 51.3612 8.84852 51.2674 8.87666Z" fill="#DB1A21"/>
</g>
<mask id="mask22_466_426" style="mask-type:luminance" maskUnits="userSpaceOnUse" x="17" y="5" width="37" height="36">
<path d="M43.2778 6.8417C41.3366 7.81697 39.0954 9.31739 36.5634 11.5774C34.0221 13.8468 31.19 16.8945 28.0767 20.9363C24.9539 25.0061 21.5498 30.07 17.8926 36.3812L22.2344 40.4417C25.9761 33.9711 29.4552 28.7759 32.6529 24.6029C35.8413 20.4486 38.739 17.3259 41.3272 14.9908C43.9155 12.6652 46.2036 11.1273 48.1729 10.1239C50.1422 9.12046 51.802 8.66095 53.143 8.49216L48.1448 5.27563C46.8319 5.42568 45.2002 5.8758 43.2778 6.8417Z" fill="white"/>
</mask>
<g mask="url(#mask22_466_426)">
<path d="M52.3833 8.60479L47.4038 5.37889C47.4695 5.36951 47.5351 5.35076 47.6007 5.34138C47.6664 5.332 47.7226 5.32262 47.7883 5.31325C47.8539 5.30387 47.9102 5.29449 47.9758 5.28511C48.0321 5.27574 48.0978 5.26636 48.154 5.26636L53.1523 8.48288C53.096 8.49226 53.0304 8.50164 52.9647 8.51101C52.8991 8.52039 52.8428 8.52977 52.7772 8.53915C52.7115 8.54852 52.6459 8.5579 52.5803 8.56728C52.5146 8.57666 52.449 8.59541 52.3833 8.60479Z" fill="#DF1B22"/>
</g>
<path d="M53.1429 8.48272C53.8368 8.39832 54.4464 8.37957 54.9715 8.4077C55.4873 8.43583 55.9186 8.51086 56.2656 8.60463C56.6126 8.68903 56.8752 8.79218 57.0533 8.87658C57.2315 8.96098 57.3347 9.01725 57.3534 9.02663C57.3347 9.02663 57.3065 9.02662 57.2878 9.036C57.269 9.036 57.2409 9.036 57.2221 9.04538C57.2034 9.04538 57.1752 9.05476 57.1565 9.05476C57.1377 9.05476 57.1096 9.06413 57.0908 9.06413C52.5239 9.65492 48.0321 12.4963 43.859 16.4631C39.6672 20.4579 35.8037 25.5781 32.5027 30.6889C29.1924 35.8091 26.4542 40.9105 24.4849 44.8491C22.5156 48.7877 21.3246 51.5729 21.1089 52.0793L13.2505 34.7213L22.2342 40.4416C25.9759 33.9711 29.455 28.7759 32.6528 24.6028C35.8412 20.4486 38.7388 17.3258 41.3271 14.9908C43.9153 12.6651 46.2034 11.1272 48.1727 10.1238C50.142 9.1204 51.8019 8.65152 53.1429 8.48272Z" fill="#CF181F"/>
<path d="M21.1092 52.0699L16.8236 47.7562L9.06836 30.7358L13.2508 34.712L21.1092 52.0699Z" fill="#920608"/>
<path d="M13.2508 34.712L9.06836 30.7358L17.8927 36.3812L22.2345 40.4323L13.2508 34.712Z" fill="#DD1A22"/>
</svg>
