<svg width="48" height="48" viewBox="0 0 48 48" fill="none" xmlns="http://www.w3.org/2000/svg">
<circle cx="24" cy="24" r="20" fill="#132123"/>
<path d="M18.5179 14.4168C18.5176 14.9914 18.2891 15.5424 17.8825 15.9485C17.476 16.3546 16.9248 16.5826 16.3502 16.5824C15.7755 16.5821 15.2245 16.3535 14.8184 15.947C14.4123 15.5405 14.1843 14.9892 14.1846 14.4146C14.1849 13.84 14.4134 13.289 14.8199 12.8829C15.2265 12.4767 15.7777 12.2487 16.3523 12.249C16.927 12.2493 17.4779 12.4779 17.8841 12.8844C18.2902 13.2909 18.5182 13.8421 18.5179 14.4168ZM18.5829 18.1868H14.2496V31.7501H18.5829V18.1868ZM25.4296 18.1868H21.1179V31.7501H25.3862V24.6326C25.3862 20.6676 30.5537 20.2993 30.5537 24.6326V31.7501H34.8329V23.1593C34.8329 16.4751 27.1846 16.7243 25.3862 20.0068L25.4296 18.1868Z" fill="#F8F8F9"/>
</svg>
