<svg width="48" height="48" viewBox="0 0 48 48" fill="none" xmlns="http://www.w3.org/2000/svg">
<circle cx="24" cy="24" r="20" fill="#132123"/>
<path d="M29.3668 16.79C28.5695 15.8794 28.1301 14.7103 28.1302 13.5H24.5252V27.9667C24.498 28.7497 24.1676 29.4916 23.6039 30.0357C23.0401 30.5799 22.287 30.8838 21.5035 30.8833C19.8468 30.8833 18.4702 29.53 18.4702 27.85C18.4702 25.8433 20.4068 24.3383 22.4018 24.9567V21.27C18.3768 20.7333 14.8535 23.86 14.8535 27.85C14.8535 31.735 18.0735 34.5 21.4918 34.5C25.1552 34.5 28.1302 31.525 28.1302 27.85V20.5117C29.592 21.5615 31.3471 22.1248 33.1468 22.1217V18.5167C33.1468 18.5167 30.9535 18.6217 29.3668 16.79Z" fill="#F8F8F9"/>
</svg>
