<svg width="48" height="48" viewBox="0 0 48 48" fill="none" xmlns="http://www.w3.org/2000/svg">
<circle cx="24" cy="24" r="20" fill="#132123"/>
<path d="M21.5 27.75L27.9875 24L21.5 20.25V27.75ZM35.95 17.9625C36.1125 18.55 36.225 19.3375 36.3 20.3375C36.3875 21.3375 36.425 22.2 36.425 22.95L36.5 24C36.5 26.7375 36.3 28.75 35.95 30.0375C35.6375 31.1625 34.9125 31.8875 33.7875 32.2C33.2 32.3625 32.125 32.475 30.475 32.55C28.85 32.6375 27.3625 32.675 25.9875 32.675L24 32.75C18.7625 32.75 15.5 32.55 14.2125 32.2C13.0875 31.8875 12.3625 31.1625 12.05 30.0375C11.8875 29.45 11.775 28.6625 11.7 27.6625C11.6125 26.6625 11.575 25.8 11.575 25.05L11.5 24C11.5 21.2625 11.7 19.25 12.05 17.9625C12.3625 16.8375 13.0875 16.1125 14.2125 15.8C14.8 15.6375 15.875 15.525 17.525 15.45C19.15 15.3625 20.6375 15.325 22.0125 15.325L24 15.25C29.2375 15.25 32.5 15.45 33.7875 15.8C34.9125 16.1125 35.6375 16.8375 35.95 17.9625Z" fill="#F8F8F9"/>
</svg>
