<svg width="203" height="31" viewBox="0 0 203 31" fill="none" xmlns="http://www.w3.org/2000/svg">
<g clip-path="url(#clip0_289_110)">
<path d="M189.718 27.2354L189.773 27.2339H189.663L189.718 27.2354Z" fill="#E40784"/>
<path d="M176.604 31.0001C175.155 30.9996 173.738 30.596 172.533 29.8405C171.328 29.085 170.389 28.0114 169.834 26.7555C169.28 25.4995 169.135 24.1177 169.418 22.7847C169.702 21.4516 170.4 20.2272 171.425 19.2662C172.45 18.3052 173.756 17.6508 175.178 17.3858C176.6 17.1208 178.074 17.257 179.413 17.7772C180.752 18.2974 181.897 19.1783 182.702 20.3085C183.508 21.4387 183.937 22.7673 183.937 24.1265C183.936 25.9495 183.163 27.6974 181.788 28.9862C180.413 30.275 178.549 30.9993 176.604 31.0001ZM176.604 21.2739C176.003 21.275 175.415 21.4432 174.915 21.7575C174.416 22.0716 174.027 22.5176 173.797 23.0391C173.568 23.5605 173.508 24.134 173.627 24.6872C173.745 25.2402 174.035 25.7481 174.461 26.1465C174.887 26.545 175.429 26.8162 176.019 26.9257C176.61 27.0353 177.221 26.9784 177.777 26.7623C178.332 26.5461 178.807 26.1804 179.141 25.7113C179.475 25.2422 179.653 24.6907 179.653 24.1266C179.652 23.3695 179.33 22.644 178.758 22.1092C178.187 21.5744 177.412 21.274 176.604 21.2739Z" fill="#E40784"/>
<path d="M176.604 6.21776e-06C175.588 0.000559605 174.573 0.0568318 173.563 0.168549V4.51823C176.564 4.10886 179.624 4.30977 182.535 5.10734C185.445 5.90491 188.139 7.28041 190.432 9.14054C192.726 11.0006 194.565 13.3017 195.826 15.8875C197.087 18.4733 197.74 21.2833 197.74 24.1266C197.742 25.0816 197.668 26.0354 197.518 26.98H202.159C202.591 23.5942 202.252 20.1607 201.165 16.9066C200.078 13.6524 198.268 10.6514 195.853 8.10166C193.437 5.55192 190.473 3.51147 187.155 2.11494C183.837 0.7184 180.241 -0.00244248 176.604 6.21776e-06Z" fill="#E40784"/>
<path d="M176.604 8.46851C175.584 8.46956 174.566 8.55828 173.563 8.73362V13.1449C175.352 12.7091 177.224 12.6633 179.035 13.0111C180.847 13.3589 182.549 14.0909 184.011 15.1511C185.474 16.2113 186.657 17.5715 187.473 19.1273C188.287 20.6831 188.712 22.3933 188.713 24.1266C188.711 25.0893 188.581 26.048 188.324 26.9802H193.029C193.212 26.0387 193.305 25.0837 193.306 24.1266C193.3 19.975 191.539 15.9948 188.408 13.0594C185.277 10.1238 181.032 8.47291 176.604 8.46851Z" fill="#E40784"/>
<path d="M89.147 8.54639H85.524C83.5575 8.54843 81.6723 9.28183 80.2817 10.5856C78.8912 11.8893 78.1096 13.657 78.1069 15.5007V27.2013H83.256V15.5007C83.2567 14.937 83.496 14.3966 83.9212 13.998C84.3464 13.5996 84.923 13.3754 85.524 13.3749H89.147V8.54639Z" fill="#1E1715"/>
<path d="M100.271 22.3734C99.3179 22.3735 98.3849 22.1083 97.5921 21.6115C96.7986 21.1146 96.1803 20.4084 95.8153 19.582C95.4503 18.7557 95.3544 17.8465 95.5409 16.9692C95.7267 16.0919 96.1856 15.2861 96.8601 14.6536C97.5345 14.0211 98.3941 13.5903 99.3298 13.4157C100.265 13.2412 101.235 13.3306 102.116 13.6729C102.998 14.0151 103.751 14.5947 104.281 15.3383C104.811 16.082 105.094 16.9563 105.094 17.8508C105.092 19.0497 104.584 20.1991 103.68 21.047C102.776 21.8948 101.55 22.3719 100.271 22.3734ZM100.271 8.50172C98.7486 8.49986 97.2456 8.82505 95.8775 9.4523C94.5094 10.0796 93.3125 10.9923 92.3795 12.1205C91.4458 13.2487 90.8005 14.5623 90.4923 15.9607C90.1842 17.359 90.2219 18.8049 90.6021 20.1876C90.9823 21.5702 91.6951 22.8528 92.6863 23.937C93.6775 25.0212 94.92 25.8781 96.3192 26.4422C97.7183 27.0063 99.2366 27.2624 100.757 27.1911C102.278 27.1196 103.761 26.7225 105.093 26.0302V27.2027H110.243V17.8626V17.8508C110.24 15.3719 109.189 12.9955 107.32 11.2427C105.45 9.49006 102.915 8.50426 100.271 8.50172Z" fill="#1E1715"/>
<path d="M51.7636 21.9034C50.8525 22.9819 49.606 23.7677 48.1971 24.1519C46.7881 24.536 45.2865 24.4994 43.9008 24.0471C42.515 23.5949 41.3138 22.7494 40.4637 21.628C39.6136 20.5066 39.1569 19.1649 39.1569 17.7891C39.1569 16.4133 39.6136 15.0716 40.4637 13.9502C41.3138 12.8288 42.515 11.9833 43.9008 11.5311C45.2865 11.0788 46.7881 11.0422 48.1971 11.4264C49.606 11.8105 50.8525 12.5963 51.7636 13.6748L51.8784 13.8092L53.9913 11.8282L53.8939 11.7198C52.567 10.2453 50.7889 9.18886 48.8004 8.69336C46.8119 8.19791 44.7091 8.28738 42.7766 8.94966C40.8441 9.61201 39.1754 10.8151 37.9964 12.3962C36.8174 13.9773 36.1851 15.8599 36.1851 17.7891C36.1851 19.7183 36.8174 21.6009 37.9964 23.182C39.1754 24.7631 40.8441 25.9662 42.7766 26.6285C44.7091 27.2908 46.8119 27.3803 48.8004 26.8848C50.7889 26.3894 52.567 25.3329 53.8939 23.8584L53.9913 23.7501L51.8784 21.769L51.7636 21.9034Z" fill="#1E1715"/>
<path d="M23.8459 8.37793C22.0368 8.37756 20.2613 8.83561 18.707 9.70361C17.1528 10.5717 15.8776 11.8174 15.0165 13.3092C14.1553 14.8009 13.74 16.4831 13.8147 18.178C13.8894 19.8727 14.4512 21.5171 15.4408 22.9371C16.4303 24.3571 17.8108 25.5 19.4361 26.2448C21.0614 26.9896 22.8712 27.3088 24.6741 27.1685C26.477 27.0281 28.2059 26.4334 29.6779 25.4475C31.15 24.4615 32.3105 23.1208 33.0367 21.5673L33.1373 21.3519H29.8009L29.7519 21.421C28.9883 22.5137 27.8971 23.3703 26.6156 23.883C25.334 24.3956 23.9194 24.5413 22.5497 24.3019C21.18 24.0624 19.9164 23.4485 18.9181 22.5372C17.9197 21.626 17.2311 20.4581 16.9389 19.1807H33.7715L33.7914 19.0479C33.8515 18.6302 33.8822 18.2093 33.8832 17.7879C33.88 15.2929 32.8214 12.9009 30.9397 11.1368C29.058 9.37272 26.5068 8.38053 23.8459 8.37793ZM16.9381 16.3963C17.2774 14.9149 18.1481 13.5872 19.405 12.6349C20.6619 11.6825 22.229 11.163 23.845 11.163C25.4611 11.163 27.0282 11.6825 28.2851 12.6349C29.5421 13.5872 30.4127 14.9149 30.752 16.3963H16.9381Z" fill="#1E1715"/>
<path d="M56.8032 27.2012H59.7737V16.6256C59.7715 15.903 59.9214 15.1871 60.2147 14.519C60.5081 13.8508 60.9393 13.2434 61.4835 12.7318C62.0276 12.2201 62.6741 11.8141 63.3858 11.5371C64.0977 11.2602 64.8607 11.1176 65.6313 11.1176C66.4022 11.1176 67.1653 11.2602 67.8768 11.5371C68.5889 11.8141 69.235 12.2201 69.7792 12.7318C70.3234 13.2434 70.7545 13.8508 71.0481 14.519C71.3417 15.1871 71.4911 15.903 71.4891 16.6256V27.2005H74.4601V16.2618H74.4495C74.3767 14.6989 73.8339 13.1873 72.8823 11.9024C71.9308 10.6174 70.6103 9.61184 69.0736 9.00238C67.5369 8.39292 65.8476 8.20444 64.2015 8.45901C62.5554 8.71352 61.0201 9.4006 59.7736 10.4404V0.185547H56.8032V27.2012Z" fill="#1E1715"/>
<path d="M3.42417 8.37773H0V11.1628H3.42417V21.2931C3.42605 22.8593 4.09044 24.3608 5.27159 25.4683C6.45273 26.5758 8.05421 27.1988 9.72456 27.2005H12.832V24.4146H9.72456C8.84194 24.4136 7.99575 24.0844 7.37168 23.4992C6.74753 22.914 6.39644 22.1207 6.3954 21.2931V11.1628H11.2039V8.37773H6.3954V1.94531H3.42417V8.37773Z" fill="#1E1715"/>
<path d="M127.374 9.64822C126.364 9.13194 125.266 8.78518 124.128 8.62348C124.015 8.60717 123.903 8.58864 123.788 8.5753C123.662 8.56036 123.534 8.55001 123.407 8.53959C123.164 8.52031 122.92 8.50773 122.673 8.50469C122.647 8.50469 122.621 8.50177 122.596 8.50177L122.578 8.50246L122.552 8.50177C119.907 8.50177 117.37 9.48689 115.5 11.2404C113.63 12.994 112.579 15.3724 112.579 17.8522C112.579 20.3322 113.63 22.7105 115.5 24.464C117.37 26.2177 119.907 27.2028 122.552 27.2028C122.56 27.2028 122.566 27.2013 122.574 27.2013C122.581 27.2013 122.588 27.2028 122.596 27.2028C122.916 27.2028 123.231 27.1834 123.544 27.1545C123.559 27.1538 123.575 27.1516 123.59 27.1508C124.934 27.0256 126.237 26.6444 127.419 26.0303V27.2027H132.564L132.525 0.185547H127.374V9.64822ZM127.374 17.8545C127.374 19.0532 126.865 20.2025 125.961 21.0496C125.056 21.8967 123.829 22.3724 122.551 22.3719C121.273 22.3715 120.047 21.895 119.143 21.0472C118.239 20.1995 117.731 19.0498 117.731 17.8511C117.731 16.6524 118.239 15.5028 119.143 14.655C120.047 13.8072 121.273 13.3308 122.551 13.3303C123.829 13.3298 125.056 13.8055 125.961 14.6527C126.865 15.4998 127.374 16.6491 127.374 17.8478V17.8545Z" fill="#1E1715"/>
<path d="M150.05 27.1665H155.197V17.8286C155.195 15.7751 154.472 13.7793 153.141 12.1487C151.81 10.5181 149.944 9.34299 147.83 8.80445C145.716 8.26598 143.473 8.39389 141.445 9.16846C139.416 9.94308 137.716 11.3215 136.605 13.0913C135.494 14.8611 135.035 16.9243 135.298 18.963C135.56 21.0017 136.53 22.9028 138.059 24.3737C139.587 25.8445 141.589 26.8035 143.756 27.1029C145.923 27.4023 148.134 27.0254 150.05 26.0305V27.1665ZM145.227 22.3743C144.274 22.3743 143.341 22.1091 142.548 21.6124C141.756 21.1155 141.137 20.4096 140.772 19.5835C140.407 18.7574 140.312 17.8485 140.498 16.9714C140.684 16.0944 141.143 15.2888 141.817 14.6564C142.491 14.0239 143.35 13.5931 144.285 13.4184C145.22 13.2437 146.19 13.3329 147.071 13.6747C147.952 14.0165 148.706 14.5956 149.235 15.3388C149.766 16.082 150.049 16.956 150.05 17.8501V17.8554C150.048 19.0539 149.54 20.203 148.635 21.0502C147.731 21.8974 146.505 22.3737 145.227 22.3743Z" fill="#1E1715"/>
<path d="M165.801 8.50464C163.834 8.50724 161.948 9.24083 160.558 10.5446C159.167 11.8483 158.384 13.6158 158.38 15.4598V27.2027H163.536V15.4598C163.536 14.8963 163.774 14.3558 164.199 13.9571C164.624 13.5583 165.2 13.3339 165.801 13.3333H169.428V8.5047L165.801 8.50464Z" fill="#1E1715"/>
</g>
<defs>
<clipPath id="clip0_289_110">
<rect width="203" height="31" fill="white"/>
</clipPath>
</defs>
</svg>
