<svg width="1600" height="488" viewBox="0 0 1600 488" fill="none" xmlns="http://www.w3.org/2000/svg">
<g clip-path="url(#clip0_153_160)">
<path d="M0 191.002L766.5 263.5L1600 141V488H0V191.002Z" fill="#DFF5FE"/>
<path fill-rule="evenodd" clip-rule="evenodd" d="M846.529 426.455L824.155 462.457C487.785 444.156 371.832 58.5396 52.9932 408.274L173.588 187.94L323.322 118.942L493.788 191.696L846.529 426.455Z" fill="#DFF5FE"/>
<path fill-rule="evenodd" clip-rule="evenodd" d="M671.82 258.109L685.829 245.277C997.743 291.556 967.805 -134.93 1317.54 44.1751L1123.38 242.152L855.735 334.168L703.119 283.923L671.82 258.109Z" fill="#FCC018"/>
<path fill-rule="evenodd" clip-rule="evenodd" d="M662.729 293.722L642.207 302.614C384.485 161.022 155.975 606.313 -56.664 317.426L239.845 173.591L540.034 160.347L649.571 257.859L662.729 293.722Z" fill="#FCC018"/>
<path fill-rule="evenodd" clip-rule="evenodd" d="M1676.25 162.841L1656.38 178.785C1213.98 121.282 1256.44 651.203 760.401 428.66L1035.79 182.668L1415.4 68.3349L1631.86 130.766L1676.25 162.841Z" fill="#BA9AF2"/>
<path fill-rule="evenodd" clip-rule="evenodd" d="M517.363 158.58L338.572 102.264L263.325 184.574C631.195 107.313 815.069 908.054 1334.75 149.534L878.829 300.872L698.717 266.133L558.629 184.424L517.363 158.58Z" fill="#99E06F"/>
<path fill-rule="evenodd" clip-rule="evenodd" d="M0 217.781C564.072 -258.74 605.658 666.113 1162.73 60.9137C1306.9 -95.7427 1498.4 245.039 1627.24 -18.5693L1601 203.446C1486.41 356.857 1490.93 -44.5056 1302.81 184.274C655.249 908.175 600.455 -459.602 0 488V217.781Z" fill="#00C1FF"/>
<path fill-rule="evenodd" clip-rule="evenodd" d="M0 217.781C564.072 -258.74 605.658 666.113 1162.73 60.9137C1306.9 -95.7427 1503.35 229.812 1632.19 -33.7961L1601 203.446C1486.41 356.857 1490.93 -44.5056 1302.81 184.273C655.249 908.175 600.455 -459.602 0 488V217.781Z" fill="#00C1FF"/>
<path fill-rule="evenodd" clip-rule="evenodd" d="M724.988 446.088C714.73 439.862 708 429.406 708 417.557C708 398.472 725.461 383 747 383C768.539 383 786 398.472 786 417.557C786 436.642 768.539 452.114 747 452.114C744.044 452.114 741.165 451.823 738.398 451.271C737.685 452.347 734.168 457.482 730.709 459.519C726.7 461.88 719.108 462.234 719.108 462.234C719.108 462.234 722.379 457.833 723.551 454.582C724.558 451.787 724.906 447.368 724.988 446.088Z" fill="#7AB4FF"/>
</g>
<defs>
<clipPath id="clip0_153_160">
<rect width="1601" height="488" fill="white"/>
</clipPath>
</defs>
</svg>
