<svg width="375" height="158" viewBox="0 0 375 158" fill="none" xmlns="http://www.w3.org/2000/svg">
<g clip-path="url(#clip0_2027_93)">
<path fill-rule="evenodd" clip-rule="evenodd" d="M273.363 137.712L266.138 149.338C157.517 143.428 120.073 18.9037 17.1123 131.841L56.0553 60.69L104.408 38.4092L159.455 61.9031L273.363 137.712Z" fill="#DFF5FE"/>
<path fill-rule="evenodd" clip-rule="evenodd" d="M216.946 83.3494L221.47 79.2057C322.195 94.1502 312.527 -43.5718 425.465 14.2652L362.766 78.1965L276.337 107.911L227.054 91.6853L216.946 83.3494Z" fill="#FCC018"/>
<path fill-rule="evenodd" clip-rule="evenodd" d="M214.011 94.8497L207.384 97.7212C124.16 51.9979 50.3684 195.793 -18.2977 102.504L77.4519 56.0567L174.39 51.7798L209.762 83.2688L214.011 94.8497Z" fill="#FCC018"/>
<path fill-rule="evenodd" clip-rule="evenodd" d="M541.299 52.5852L534.883 57.7338C392.022 39.1649 405.735 210.289 245.551 138.424L334.479 58.9879L457.064 22.067L526.963 42.2276L541.299 52.5852Z" fill="#BA9AF2"/>
<path fill-rule="evenodd" clip-rule="evenodd" d="M167.068 51.2091L109.332 33.0234L85.0332 59.6032C203.827 34.6537 263.204 293.232 431.023 48.2881L283.794 97.1585L225.631 85.9404L180.394 59.5547L167.068 51.2091Z" fill="#99E06F"/>
<path fill-rule="evenodd" clip-rule="evenodd" d="M0 70.3263C182.152 -83.5532 195.581 215.103 375.471 19.6703C422.027 -30.9177 483.867 79.1287 525.473 -5.99658L517 65.6974C479.996 115.237 481.456 -14.372 420.709 59.5061C211.595 293.271 193.901 -148.416 0 157.586V70.3263Z" fill="#00C1FF"/>
<path fill-rule="evenodd" clip-rule="evenodd" d="M0 70.3264C182.152 -83.5531 195.581 215.103 375.471 19.6704C422.027 -30.9176 485.466 74.2117 527.071 -10.9136L517 65.6974C479.996 115.237 481.456 -14.3719 420.709 59.5062C211.595 293.271 193.901 -148.416 0 157.587V70.3264Z" fill="#00C1FF"/>
<path fill-rule="evenodd" clip-rule="evenodd" d="M234.115 150.123C230.803 148.207 228.629 144.988 228.629 141.341C228.629 135.467 234.268 130.705 241.223 130.705C248.179 130.705 253.817 135.467 253.817 141.341C253.817 147.216 248.179 151.978 241.223 151.978C240.269 151.978 239.339 151.888 238.445 151.718C238.214 152.05 237.079 153.63 235.963 154.257C234.668 154.983 232.216 155.093 232.216 155.093C232.216 155.093 233.273 153.738 233.651 152.737C233.976 151.877 234.089 150.517 234.115 150.123Z" fill="#7AB4FF"/>
<path d="M355.193 86.44C357.695 86.1126 359.531 88.8038 358.266 90.9442L353.018 99.8227C351.908 101.7 349.171 101.745 347.916 99.9063L342.785 92.3856C341.531 90.5467 342.619 88.0849 344.814 87.7977L355.193 86.44Z" fill="#DFF5FE"/>
<rect width="10.2437" height="3.67063" rx="1.83531" transform="matrix(0.780053 -0.609526 0.654736 0.769535 338.058 98.9497)" fill="#DFF5FE"/>
<rect width="10.2788" height="3.62271" rx="1.81136" transform="matrix(0.894473 -0.43634 0.439292 0.90271 325.048 105.609)" fill="#DFF5FE"/>
<rect width="10.274" height="3.58552" rx="1.79276" transform="matrix(0.947858 -0.315719 0.279532 0.959033 311.437 110.595)" fill="#DFF5FE"/>
<rect width="9.96853" height="3.47217" rx="1.73608" transform="matrix(1.00045 -0.100652 -0.0324373 0.989897 296.104 113.143)" fill="#DFF5FE"/>
<rect width="9.47117" height="4.82636" rx="2.41318" transform="matrix(1.00838 0.0356662 -0.156272 0.975474 281.745 111.899)" fill="#DFF5FE"/>
<rect width="9.37877" height="4.66801" rx="2.334" transform="matrix(0.988911 0.217822 -0.304711 0.937566 267.044 107.901)" fill="#DFF5FE"/>
</g>
<path d="M45.4543 81.6315C44.5715 80.8438 44.8724 79.3959 45.996 79.0252L49.7208 77.7962C50.8443 77.4255 51.9478 78.4101 51.7071 79.5684L50.909 83.4088C50.6683 84.5671 49.2639 85.0305 48.3811 84.2428L45.4543 81.6315Z" fill="#99E06F"/>
<rect x="54.5977" y="83.4629" width="4.37142" height="1.8778" rx="0.9389" transform="rotate(-165.548 54.5977 83.4629)" fill="#99E06F"/>
<path d="M92.0291 108.063C92.416 107.974 92.7941 108.157 92.9888 108.528L94.4424 111.297C94.7662 111.913 94.4612 112.761 93.832 112.994C93.4103 113.15 92.9709 112.972 92.755 112.558L91.3081 109.785C90.9636 109.125 91.3419 108.221 92.0291 108.063Z" fill="#99E06F"/>
<rect width="5.67813" height="1.98701" rx="0.993504" transform="matrix(0.999677 0.0254226 0.134042 0.990976 77.3047 102.7)" fill="#99E06F"/>
<rect width="5.34234" height="1.94015" rx="0.970076" transform="matrix(0.979408 0.201892 -0.0730891 0.997325 70.1992 101.693)" fill="#99E06F"/>
<path d="M90.4411 106.324C90.2635 106.844 89.6945 107.086 89.1948 106.855L87.4308 106.038L85.6904 105.45C85.1712 105.275 84.884 104.69 85.0617 104.17C85.2219 103.701 85.7059 103.451 86.176 103.601C86.7382 103.78 87.4769 104.026 88.0339 104.247C88.6234 104.482 89.377 104.835 89.9367 105.106C90.3845 105.323 90.6015 105.855 90.4411 106.324Z" fill="#99E06F"/>
<path d="M63.9745 97.7785C64.3376 97.3664 64.9559 97.3606 65.3289 97.7657L66.6456 99.196L68.0285 100.405C68.4411 100.766 68.4825 101.416 68.1192 101.828C67.7918 102.2 67.2486 102.246 66.8718 101.928C66.4211 101.547 65.8328 101.037 65.4031 100.619C64.9483 100.177 64.3874 99.5614 63.9742 99.0967C63.6436 98.7248 63.6467 98.1505 63.9745 97.7785Z" fill="#99E06F"/>
<rect width="5.22821" height="1.87781" rx="0.938903" transform="matrix(0.387256 0.921972 -0.922466 0.386079 61.793 90.4355)" fill="#99E06F"/>
<rect width="5.43734" height="1.88928" rx="0.944639" transform="matrix(0.510431 0.859919 -0.888888 0.458124 57.9971 83.4709)" fill="#99E06F"/>
<path fill-rule="evenodd" clip-rule="evenodd" d="M124.72 71.4525C128.858 68.9408 131.574 64.7223 131.574 59.942C131.574 52.242 124.529 46 115.839 46C107.149 46 100.104 52.242 100.104 59.942C100.104 67.6419 107.149 73.8839 115.839 73.8839C117.032 73.8839 118.193 73.7664 119.31 73.5436C119.597 73.9773 121.016 76.0496 122.412 76.8715C124.03 77.8242 127.093 77.967 127.093 77.967C127.093 77.967 125.773 76.1913 125.3 74.8798C124.893 73.7521 124.753 71.9687 124.72 71.4525Z" fill="#DFF5FE"/>
<defs>
<clipPath id="clip0_2027_93">
<rect width="517" height="157.587" fill="white"/>
</clipPath>
</defs>
</svg>
