<svg width="375" height="158" viewBox="0 0 375 158" fill="none" xmlns="http://www.w3.org/2000/svg">
<g clip-path="url(#clip0_165_1751)">
<path fill-rule="evenodd" clip-rule="evenodd" d="M273.363 137.712L266.138 149.338C157.517 143.428 120.073 18.9037 17.1123 131.841L56.0553 60.69L104.408 38.4092L159.455 61.9031L273.363 137.712Z" fill="#DFF5FE"/>
<path fill-rule="evenodd" clip-rule="evenodd" d="M216.946 83.3494L221.47 79.2057C322.195 94.1502 312.527 -43.5718 425.465 14.2652L362.766 78.1965L276.337 107.911L227.054 91.6853L216.946 83.3494Z" fill="#FCC018"/>
<path fill-rule="evenodd" clip-rule="evenodd" d="M214.011 94.8497L207.384 97.7212C124.16 51.9979 50.3684 195.793 -18.2977 102.504L77.4519 56.0567L174.39 51.7798L209.762 83.2688L214.011 94.8497Z" fill="#FCC018"/>
<path fill-rule="evenodd" clip-rule="evenodd" d="M541.299 52.5852L534.883 57.7338C392.022 39.1649 405.735 210.289 245.551 138.424L334.479 58.9879L457.064 22.067L526.963 42.2276L541.299 52.5852Z" fill="#BA9AF2"/>
<path fill-rule="evenodd" clip-rule="evenodd" d="M167.068 51.2091L109.332 33.0234L85.0332 59.6032C203.827 34.6537 263.204 293.232 431.023 48.2881L283.794 97.1585L225.631 85.9404L180.394 59.5547L167.068 51.2091Z" fill="#99E06F"/>
<path fill-rule="evenodd" clip-rule="evenodd" d="M0 70.3263C182.152 -83.5532 195.581 215.103 375.471 19.6703C422.027 -30.9177 483.867 79.1287 525.473 -5.99658L517 65.6974C479.996 115.237 481.456 -14.372 420.709 59.5061C211.595 293.271 193.901 -148.416 0 157.586V70.3263Z" fill="#00C1FF"/>
<path fill-rule="evenodd" clip-rule="evenodd" d="M0 70.3264C182.152 -83.5531 195.581 215.103 375.471 19.6704C422.027 -30.9176 485.466 74.2117 527.071 -10.9136L517 65.6974C479.996 115.237 481.456 -14.3719 420.709 59.5062C211.595 293.271 193.901 -148.416 0 157.587V70.3264Z" fill="#00C1FF"/>
<path fill-rule="evenodd" clip-rule="evenodd" d="M234.115 150.123C230.803 148.207 228.629 144.988 228.629 141.341C228.629 135.467 234.268 130.705 241.223 130.705C248.179 130.705 253.817 135.467 253.817 141.341C253.817 147.216 248.179 151.978 241.223 151.978C240.269 151.978 239.339 151.888 238.445 151.718C238.214 152.05 237.079 153.63 235.963 154.257C234.668 154.983 232.216 155.093 232.216 155.093C232.216 155.093 233.273 153.738 233.651 152.737C233.976 151.877 234.089 150.517 234.115 150.123Z" fill="#7AB4FF"/>
<path d="M355.193 86.44C357.695 86.1126 359.531 88.8038 358.266 90.9442L353.018 99.8227C351.908 101.7 349.171 101.745 347.916 99.9063L342.785 92.3856C341.531 90.5467 342.619 88.0849 344.814 87.7977L355.193 86.44Z" fill="#DFF5FE"/>
<rect width="10.2437" height="3.67063" rx="1.83531" transform="matrix(0.780053 -0.609526 0.654736 0.769535 338.058 98.9497)" fill="#DFF5FE"/>
<rect width="10.2788" height="3.62271" rx="1.81136" transform="matrix(0.894473 -0.43634 0.439292 0.90271 325.048 105.609)" fill="#DFF5FE"/>
<rect width="10.274" height="3.58552" rx="1.79276" transform="matrix(0.947858 -0.315719 0.279532 0.959033 311.437 110.595)" fill="#DFF5FE"/>
<rect width="9.96853" height="3.47217" rx="1.73608" transform="matrix(1.00045 -0.100652 -0.0324373 0.989897 296.104 113.143)" fill="#DFF5FE"/>
<rect width="9.47117" height="4.82636" rx="2.41318" transform="matrix(1.00838 0.0356662 -0.156272 0.975474 281.745 111.899)" fill="#DFF5FE"/>
<rect width="9.37877" height="4.66801" rx="2.334" transform="matrix(0.988911 0.217822 -0.304711 0.937566 267.044 107.901)" fill="#DFF5FE"/>
</g>
<defs>
<clipPath id="clip0_165_1751">
<rect width="517" height="157.587" fill="white"/>
</clipPath>
</defs>
</svg>
