<svg width="1206" height="264" viewBox="0 0 1206 264" fill="none" xmlns="http://www.w3.org/2000/svg">
<path d="M1147.71 45.9099C1155.05 43.5469 1162.21 49.9784 1160.6 57.4876L1153.58 90.3141C1151.97 97.8245 1142.79 100.78 1137.06 95.6337L1112 73.1371C1106.27 67.9909 1108.28 58.6031 1115.62 56.2398L1147.71 45.9099Z" fill="#DFF5FE"/>
<rect width="32.3039" height="13.888" rx="6.94401" transform="matrix(0.598839 -0.799914 0.804043 0.595864 1102.85 99.8354)" fill="#DFF5FE"/>
<rect width="32.3236" height="13.8796" rx="6.93978" transform="matrix(0.764414 -0.64422 0.647821 0.762226 1067.32 132.247)" fill="#DFF5FE"/>
<rect width="32.328" height="13.8794" rx="6.93971" transform="matrix(0.851248 -0.524765 0.527579 0.849508 1028.46 159.58)" fill="#DFF5FE"/>
<rect width="32.3193" height="13.8914" rx="6.94568" transform="matrix(0.958556 -0.286867 0.28812 0.957007 981.633 179.861)" fill="#DFF5FE"/>
<rect width="32.307" height="13.9068" rx="6.95342" transform="matrix(0.990631 -0.142446 0.143255 0.988856 935.105 189.508)" fill="#DFF5FE"/>
<rect width="32.3667" height="13.7613" rx="6.88063" transform="matrix(1.00076 0.0230619 -0.0223572 0.998724 885.297 188.092)" fill="#DFF5FE"/>
<path d="M145.351 154.529C124.77 141.065 103.343 159.298 103.343 159.298C103.343 159.298 90.9378 140.224 71.7666 147.236C46.1104 156.62 50.3396 173.603 50.3396 173.603C50.3396 173.603 36.8072 164.347 19.6088 178.091C-0.441508 194.114 19.6088 204.738 19.6088 204.738C19.6088 204.738 5.79367 206.701 1.28314 222.129C-3.22738 237.556 27.4266 236.939 27.4266 236.939C27.4266 236.939 26.7443 258.177 38.2169 262.24C51.1079 266.805 71.7666 251.3 71.7666 251.3C71.7666 251.3 78.5934 257.387 84.454 259.715C90.4869 262.112 93.8171 261.509 100.242 260.557C105.553 259.77 108.254 258.696 112.929 256.069C122.105 250.912 122.233 239.8 122.233 239.8C122.233 239.8 154.408 244.849 162.831 227.739C169.598 213.994 158.321 207.263 158.321 207.263C158.321 207.263 178.588 196.965 172.981 182.579C167.624 168.834 145.351 173.603 145.351 173.603C145.351 173.603 152.676 159.321 145.351 154.529Z" fill="#BA9AF2"/>
<rect width="101.98" height="60.1766" rx="20" transform="matrix(0.999546 -0.030144 0.0303646 0.999539 808.619 47.1523)" fill="#DFF5FE"/>
<path d="M172.252 79.3349C169.38 76.7724 170.359 72.0618 174.014 70.8558L186.133 66.8575C189.788 65.6515 193.378 68.8546 192.595 72.6231L189.998 85.117C189.215 88.8855 184.646 90.393 181.774 87.8305L172.252 79.3349Z" fill="#99E06F"/>
<rect x="201.999" y="85.2937" width="14.2218" height="6.10915" rx="3.05458" transform="rotate(-165.548 201.999 85.2937)" fill="#99E06F"/>
<path d="M323.777 165.328C325.036 165.038 326.266 165.634 326.899 166.841L331.628 175.847C332.682 177.853 331.69 180.612 329.642 181.369C328.271 181.876 326.841 181.298 326.138 179.951L321.431 170.929C320.311 168.781 321.541 165.842 323.777 165.328Z" fill="#99E06F"/>
<rect width="18.473" height="6.46444" rx="3.23222" transform="matrix(0.999677 0.0254226 0.134042 0.990976 275.875 147.878)" fill="#99E06F"/>
<rect width="17.3805" height="6.31201" rx="3.156" transform="matrix(0.979408 0.201892 -0.0730891 0.997325 252.756 144.602)" fill="#99E06F"/>
<path d="M318.609 159.671C318.031 161.361 316.18 162.149 314.555 161.396L308.816 158.738L303.153 156.826C301.464 156.256 300.53 154.354 301.108 152.662C301.629 151.137 303.204 150.321 304.733 150.809C306.562 151.393 308.966 152.193 310.778 152.913C312.696 153.676 315.147 154.827 316.968 155.708C318.425 156.414 319.131 158.144 318.609 159.671Z" fill="#99E06F"/>
<path d="M232.506 131.867C233.687 130.527 235.699 130.508 236.913 131.826L241.196 136.479L245.695 140.412C247.038 141.586 247.172 143.701 245.99 145.042C244.925 146.251 243.158 146.402 241.932 145.366C240.466 144.126 238.552 142.467 237.154 141.108C235.674 139.669 233.85 137.667 232.505 136.156C231.43 134.946 231.44 133.077 232.506 131.867Z" fill="#99E06F"/>
<rect width="17.0092" height="6.10917" rx="3.05458" transform="matrix(0.387256 0.921972 -0.922466 0.386079 225.408 107.978)" fill="#99E06F"/>
<rect width="17.6896" height="6.1465" rx="3.07325" transform="matrix(0.510431 0.859919 -0.888888 0.458124 213.059 85.3201)" fill="#99E06F"/>
<path fill-rule="evenodd" clip-rule="evenodd" d="M400.082 82.8066C413.546 74.6351 422.38 60.9108 422.38 45.3582C422.38 20.3076 399.461 0 371.19 0C342.919 0 320 20.3076 320 45.3582C320 70.4089 342.919 90.7164 371.19 90.7164C375.07 90.7164 378.848 90.334 382.481 89.6094C383.416 91.0207 388.033 97.762 392.573 100.436C397.836 103.535 407.801 104 407.801 104C407.801 104 403.507 98.2232 401.969 93.9563C400.646 90.2879 400.19 84.4866 400.082 82.8066Z" fill="#DFF5FE"/>
<path d="M857.798 94.3895L824 60.8809L839.402 45.6105L857.798 63.9026L911.569 10.5371L926.971 25.8075L857.798 94.3895Z" fill="#00C1FF"/>
</svg>
